<svg width="50" height="50" viewBox="0 0 50 50" fill="none" xmlns="http://www.w3.org/2000/svg">
<g clip-path="url(#clip0_6456_405)">
<path d="M25.0004 0C11.1946 0 -0.000244141 11.1936 -0.000244141 25.0006C-0.000244141 35.2378 6.15553 44.0314 14.9645 47.8981C14.894 46.1526 14.951 44.0558 15.3998 42.159C15.8805 40.1282 18.6164 28.5359 18.6164 28.5359C18.6164 28.5359 17.8177 26.9397 17.8177 24.5808C17.8177 20.8763 19.9651 18.1077 22.6382 18.1077C24.9119 18.1077 26.0107 19.8154 26.0107 21.8609C26.0107 24.1468 24.5536 27.5635 23.8036 30.7327C23.1767 33.3859 25.1337 35.5481 27.7498 35.5481C32.4863 35.5481 35.676 29.4647 35.676 22.2558C35.676 16.7782 31.9863 12.6769 25.2741 12.6769C17.6901 12.6769 12.9658 18.3321 12.9658 24.6487C12.9658 26.8282 13.6081 28.3635 14.6145 29.5513C15.0767 30.0981 15.1408 30.318 14.9735 30.9462C14.8536 31.4058 14.578 32.5128 14.4645 32.9519C14.2985 33.5853 13.7857 33.8109 13.2126 33.5776C9.71963 32.1513 8.0927 28.3263 8.0927 24.0263C8.0927 16.9237 14.0818 8.40898 25.96 8.40898C35.5055 8.40898 41.7876 15.316 41.7876 22.732C41.7876 32.5378 36.335 39.8647 28.2978 39.8647C25.5998 39.8647 23.0607 38.4051 22.1908 36.7487C22.1908 36.7487 20.7395 42.5077 20.4324 43.6218C19.9023 45.5494 18.8645 47.4763 17.9158 48.9769C20.2161 49.6571 22.6023 50.0025 25.001 50.0026C38.8062 50.0013 49.9998 38.8071 49.9998 25.0006C49.9998 11.1936 38.8062 0 25.0004 0Z" fill="#CD06FF"/>
</g>
<defs>
<clipPath id="clip0_6456_405">
<rect width="50" height="50" fill="white"/>
</clipPath>
</defs>
</svg>
