<svg width="30" height="30" viewBox="0 0 30 30" fill="none" xmlns="http://www.w3.org/2000/svg">
<g clip-path="url(#clip0_6456_345)">
<path d="M15.0003 0C6.7168 0 -0.00012207 6.71615 -0.00012207 15.0004C-0.00012207 21.1427 3.69334 26.4188 8.97872 28.7388C8.93642 27.6915 8.97065 26.4335 9.23988 25.2954C9.52834 24.0769 11.1699 17.1215 11.1699 17.1215C11.1699 17.1215 10.6906 16.1638 10.6906 14.7485C10.6906 12.5258 11.9791 10.8646 13.583 10.8646C14.9472 10.8646 15.6064 11.8892 15.6064 13.1165C15.6064 14.4881 14.7322 16.5381 14.2822 18.4396C13.906 20.0315 15.0803 21.3288 16.6499 21.3288C19.4918 21.3288 21.4056 17.6788 21.4056 13.3535C21.4056 10.0669 19.1918 7.60615 15.1645 7.60615C10.6141 7.60615 7.77949 10.9992 7.77949 14.7892C7.77949 16.0969 8.16488 17.0181 8.76872 17.7308C9.04603 18.0588 9.08449 18.1908 8.98411 18.5677C8.91219 18.8435 8.7468 19.5077 8.67872 19.7712C8.57911 20.1512 8.27142 20.2865 7.92757 20.1465C5.8318 19.2908 4.85565 16.9958 4.85565 14.4158C4.85565 10.1542 8.44911 5.04538 15.576 5.04538C21.3033 5.04538 25.0726 9.18961 25.0726 13.6392C25.0726 19.5227 21.801 23.9188 16.9787 23.9188C15.3599 23.9188 13.8364 23.0431 13.3145 22.0492C13.3145 22.0492 12.4437 25.5046 12.2595 26.1731C11.9414 27.3296 11.3187 28.4858 10.7495 29.3862C12.1297 29.7943 13.5614 30.0015 15.0006 30.0015C23.2837 30.0008 29.9999 23.2842 29.9999 15.0004C29.9999 6.71615 23.2837 0 15.0003 0Z" fill="#EADEED"/>
</g>
<defs>
<clipPath id="clip0_6456_345">
<rect width="30" height="30" fill="white"/>
</clipPath>
</defs>
</svg>
