<svg width="50" height="50" viewBox="0 0 50 50" fill="none" xmlns="http://www.w3.org/2000/svg">
<g clip-path="url(#clip0_6456_407)">
<path fill-rule="evenodd" clip-rule="evenodd" d="M44.7439 9.66919C48.1581 14.0494 50.0083 19.4463 49.9997 24.9999C49.9997 38.8051 38.8048 49.9999 25.0004 49.9999C15.2869 49.9999 6.86575 44.4576 2.72729 36.3647H13.6234C18.8157 36.3647 22.4427 33.566 22.4427 29.0923C22.4427 19.6108 11.5049 23.4737 11.5049 20.1089C11.5049 18.4878 12.8055 17.898 15.1856 17.898H22.7689C24.8709 17.898 27.3433 18.275 27.3433 20.5685V28.1243C27.3433 33.5955 31.6157 36.364 36.0439 36.364C40.5478 36.364 44.7433 33.5955 44.7433 28.1243V9.66919H44.7439Z" fill="#CD06FF"/>
<path fill-rule="evenodd" clip-rule="evenodd" d="M25.0004 2.43241e-05C30.0172 -0.00698868 34.9189 1.50262 39.0626 4.33079V28.3013C39.0626 29.9628 37.7036 31.3224 36.0446 31.3224C34.3837 31.3224 33.026 29.9628 33.026 28.3013V21.1186C33.026 15.3846 30.1241 12.9994 26.3446 12.9994H14.044C9.59078 12.9994 5.89655 15.834 5.89655 20.3289C5.89655 22.6289 6.88181 25.9994 11.5414 26.8353C15.3369 27.5186 16.835 27.3199 16.835 29.3506C16.835 31.3224 14.626 31.3224 11.71 31.3224H0.808098C0.269584 29.2582 -0.00207415 27.1334 -0.000234863 25C-0.000234863 11.1981 11.1959 2.43241e-05 25.0004 2.43241e-05Z" fill="#CD06FF"/>
</g>
<defs>
<clipPath id="clip0_6456_407">
<rect width="50" height="50" fill="white"/>
</clipPath>
</defs>
</svg>
