<svg width="30" height="30" viewBox="0 0 30 30" fill="none" xmlns="http://www.w3.org/2000/svg">
<g clip-path="url(#clip0_6456_347)">
<path fill-rule="evenodd" clip-rule="evenodd" d="M26.8465 5.80151C28.895 8.42967 30.0051 11.6678 29.9999 15C29.9999 23.283 23.283 30 15.0003 30C9.17224 30 4.11955 26.6746 1.63647 21.8188H8.17416C11.2895 21.8188 13.4657 20.1396 13.4657 17.4554C13.4657 11.7665 6.90301 14.0842 6.90301 12.0654C6.90301 11.0927 7.68339 10.7388 9.11147 10.7388H13.6615C14.9226 10.7388 16.4061 10.965 16.4061 12.3411V16.8746C16.4061 20.1573 18.9695 21.8184 21.6265 21.8184C24.3288 21.8184 26.8461 20.1573 26.8461 16.8746V5.80151H26.8465Z" fill="#EADEED"/>
<path fill-rule="evenodd" clip-rule="evenodd" d="M15.0003 1.45945e-05C18.0103 -0.00419321 20.9514 0.90157 23.4376 2.59847V16.9808C23.4376 17.9777 22.6222 18.7935 21.6268 18.7935C20.6303 18.7935 19.8156 17.9777 19.8156 16.9808V12.6712C19.8156 9.23078 18.0745 7.79962 15.8068 7.79962H8.42642C5.75449 7.79962 3.53796 9.50039 3.53796 12.1973C3.53796 13.5773 4.12911 15.5996 6.92488 16.1012C9.20218 16.5112 10.101 16.3919 10.101 17.6104C10.101 18.7935 8.77565 18.7935 7.02603 18.7935H0.484883C0.161775 17.5549 -0.00122008 16.28 -0.000116504 15C-0.000116504 6.71886 6.71757 1.45945e-05 15.0003 1.45945e-05Z" fill="#EADEED"/>
</g>
<defs>
<clipPath id="clip0_6456_347">
<rect width="30" height="30" fill="white"/>
</clipPath>
</defs>
</svg>
