<svg width="30" height="30" viewBox="0 0 30 30" fill="none" xmlns="http://www.w3.org/2000/svg">
<g clip-path="url(#clip0_6456_354)">
<path d="M28.7999 14.4C28.7999 18.2191 27.2827 21.8818 24.5822 24.5823C21.8817 27.2829 18.219 28.8 14.3999 28.8C10.5808 28.8 6.91806 27.2829 4.21754 24.5823C1.51702 21.8818 -0.00012207 18.2191 -0.00012207 14.4C-0.00012207 10.5809 1.51702 6.91819 4.21754 4.21766C6.91806 1.51714 10.5808 0 14.3999 0C18.219 0 21.8817 1.51714 24.5822 4.21766C27.2827 6.91819 28.7999 10.5809 28.7999 14.4ZM14.9165 10.6308C13.5161 11.214 10.7153 12.42 6.51768 14.2488C5.83728 14.5188 5.47908 14.7852 5.44668 15.0444C5.39268 15.4818 5.94168 15.6546 6.68868 15.8904L7.00368 15.9894C7.73808 16.2288 8.72808 16.5078 9.24108 16.5186C9.70908 16.5294 10.2293 16.3386 10.8035 15.9426C14.7257 13.2948 16.7507 11.9574 16.8767 11.9286C16.9667 11.907 17.0927 11.8818 17.1755 11.9574C17.2601 12.0312 17.2511 12.1734 17.2421 12.2112C17.1881 12.4434 15.0335 14.445 13.9193 15.4818C13.5719 15.8058 13.3253 16.0344 13.2749 16.0866C13.1639 16.2 13.0511 16.3116 12.9365 16.4214C12.2525 17.0802 11.7413 17.5734 12.9635 18.3798C13.5521 18.7686 14.0237 19.0872 14.4935 19.4076C15.0047 19.7568 15.5159 20.1042 16.1783 20.5398C16.3457 20.6478 16.5077 20.7648 16.6643 20.8764C17.2601 21.3012 17.7983 21.6828 18.4589 21.6216C18.8441 21.5856 19.2419 21.2256 19.4435 20.1456C19.9205 17.595 20.8583 12.0708 21.0743 9.7938C21.0875 9.60452 21.0796 9.41435 21.0509 9.2268C21.0339 9.07546 20.9607 8.93603 20.8457 8.8362C20.6819 8.72314 20.4866 8.66457 20.2877 8.6688C19.7477 8.6778 18.9143 8.9676 14.9165 10.6308Z" fill="#CD06FF"/>
</g>
<defs>
<clipPath id="clip0_6456_354">
<rect width="30" height="30" fill="white"/>
</clipPath>
</defs>
</svg>
