<svg width="50" height="50" viewBox="0 0 50 50" fill="none" xmlns="http://www.w3.org/2000/svg">
<g clip-path="url(#clip0_6456_390)">
<path d="M49.9998 25C49.9998 31.6304 47.3658 37.9893 42.6774 42.6777C37.989 47.3661 31.6302 50 24.9998 50C18.3693 50 12.0105 47.3661 7.32209 42.6777C2.63368 37.9893 -0.000244141 31.6304 -0.000244141 25C-0.000244141 18.3696 2.63368 12.0107 7.32209 7.32233C12.0105 2.63392 18.3693 0 24.9998 0C31.6302 0 37.989 2.63392 42.6774 7.32233C47.3658 12.0107 49.9998 18.3696 49.9998 25ZM25.8966 18.4563C23.4654 19.4688 18.6029 21.5625 11.3154 24.7375C10.1341 25.2062 9.51226 25.6687 9.45601 26.1187C9.36226 26.8781 10.3154 27.1781 11.6123 27.5875L12.1591 27.7594C13.4341 28.175 15.1529 28.6594 16.0435 28.6781C16.856 28.6969 17.7591 28.3656 18.756 27.6781C25.5654 23.0813 29.081 20.7594 29.2998 20.7094C29.456 20.6719 29.6748 20.6281 29.8185 20.7594C29.9654 20.8875 29.9498 21.1344 29.9341 21.2C29.8404 21.6031 26.0998 25.0781 24.1654 26.8781C23.5623 27.4406 23.1341 27.8375 23.0466 27.9281C22.854 28.125 22.6581 28.3188 22.4591 28.5094C21.2716 29.6531 20.3841 30.5094 22.506 31.9094C23.5279 32.5844 24.3466 33.1375 25.1623 33.6937C26.0498 34.3 26.9373 34.9031 28.0873 35.6594C28.3779 35.8469 28.6591 36.05 28.931 36.2437C29.9654 36.9812 30.8998 37.6437 32.0466 37.5375C32.7154 37.475 33.406 36.85 33.756 34.975C34.5841 30.5469 36.2123 20.9562 36.5873 17.0031C36.6101 16.6745 36.5965 16.3444 36.5466 16.0187C36.5172 15.756 36.39 15.5139 36.1904 15.3406C35.906 15.1443 35.5671 15.0427 35.2216 15.05C34.2841 15.0656 32.8373 15.5688 25.8966 18.4563Z" fill="#EADEED"/>
</g>
<defs>
<clipPath id="clip0_6456_390">
<rect width="50" height="50" fill="white"/>
</clipPath>
</defs>
</svg>
