<svg width="30" height="30" viewBox="0 0 30 30" fill="none" xmlns="http://www.w3.org/2000/svg">
<g clip-path="url(#clip0_6456_352)">
<path d="M14.9999 0.600098C7.04685 0.600098 0.599854 7.0471 0.599854 15.0001C0.599854 22.9531 7.04685 29.4001 14.9999 29.4001C22.9529 29.4001 29.3999 22.9531 29.3999 15.0001C29.3999 7.0471 22.9529 0.600098 14.9999 0.600098ZM20.5379 16.8466C20.5379 16.8466 21.8114 18.1036 22.1249 18.6871C22.1339 18.6991 22.1384 18.7111 22.1414 18.7171C22.2689 18.9316 22.2989 19.0981 22.2359 19.2226C22.1309 19.4296 21.7709 19.5316 21.6479 19.5406H19.3979C19.2419 19.5406 18.9149 19.5001 18.5189 19.2271C18.2144 19.0141 17.9144 18.6646 17.6219 18.3241C17.1854 17.8171 16.8074 17.3791 16.4264 17.3791C16.378 17.379 16.3299 17.3866 16.2839 17.4016C15.9959 17.4946 15.6269 17.9056 15.6269 19.0006C15.6269 19.3426 15.3569 19.5391 15.1664 19.5391H14.1359C13.7849 19.5391 11.9564 19.4161 10.3364 17.7076C8.35335 15.6151 6.56835 11.4181 6.55335 11.3791C6.44085 11.1076 6.67335 10.9621 6.92685 10.9621H9.19935C9.50235 10.9621 9.60135 11.1466 9.67035 11.3101C9.75136 11.5006 10.0484 12.2581 10.5359 13.1101C11.3264 14.4991 11.8109 15.0631 12.1994 15.0631C12.2722 15.0622 12.3438 15.0437 12.4079 15.0091C12.9149 14.7271 12.8204 12.9196 12.7979 12.5446C12.7979 12.4741 12.7964 11.7361 12.5369 11.3821C12.3509 11.1256 12.0344 11.0281 11.8424 10.9921C11.9201 10.8849 12.0225 10.7979 12.1409 10.7386C12.4889 10.5646 13.1159 10.5391 13.7384 10.5391H14.0849C14.7599 10.5481 14.9339 10.5916 15.1784 10.6531C15.6734 10.7716 15.6839 11.0911 15.6404 12.1846C15.6269 12.4951 15.6134 12.8461 15.6134 13.2601C15.6134 13.3501 15.6089 13.4461 15.6089 13.5481C15.5939 14.1046 15.5759 14.7361 15.9689 14.9956C16.0201 15.0277 16.0794 15.0449 16.1399 15.0451C16.2764 15.0451 16.6874 15.0451 17.8004 13.1356C18.1436 12.521 18.4419 11.8823 18.6929 11.2246C18.7154 11.1856 18.7814 11.0656 18.8594 11.0191C18.9169 10.9898 18.9807 10.9748 19.0454 10.9756H21.7169C22.0079 10.9756 22.2074 11.0191 22.2449 11.1316C22.3109 11.3101 22.2329 11.8546 21.0134 13.5061L20.4689 14.2246C19.3634 15.6736 19.3634 15.7471 20.5379 16.8466Z" fill="#CD06FF"/>
</g>
<defs>
<clipPath id="clip0_6456_352">
<rect width="30" height="30" fill="white"/>
</clipPath>
</defs>
</svg>
