<svg width="50" height="50" viewBox="0 0 50 50" fill="none" xmlns="http://www.w3.org/2000/svg">
<g clip-path="url(#clip0_6456_400)">
<path d="M24.9998 0C11.1925 0 -0.000244141 11.1927 -0.000244141 25C-0.000244141 38.8073 11.1925 50 24.9998 50C38.807 50 49.9998 38.8073 49.9998 25C49.9998 11.1927 38.807 0 24.9998 0ZM34.6143 28.2057C34.6143 28.2057 36.8253 30.388 37.3695 31.401C37.3852 31.4219 37.393 31.4427 37.3982 31.4531C37.6195 31.8255 37.6716 32.1146 37.5623 32.3307C37.38 32.6901 36.755 32.8672 36.5414 32.8828H32.6352C32.3643 32.8828 31.7966 32.8125 31.1091 32.3385C30.5805 31.9687 30.0597 31.362 29.5518 30.7708C28.794 29.8906 28.1378 29.1302 27.4763 29.1302C27.3923 29.1301 27.3088 29.1432 27.2289 29.1693C26.7289 29.3307 26.0883 30.0443 26.0883 31.9453C26.0883 32.5391 25.6195 32.8802 25.2888 32.8802H23.4998C22.8904 32.8802 19.7159 32.6667 16.9034 29.7005C13.4607 26.0677 10.3617 18.7812 10.3357 18.7135C10.1404 18.2422 10.544 17.9896 10.9841 17.9896H14.9294C15.4555 17.9896 15.6274 18.3099 15.7472 18.5937C15.8878 18.9245 16.4034 20.2396 17.2498 21.7188C18.6222 24.1302 19.4633 25.1094 20.1378 25.1094C20.2642 25.1079 20.3885 25.0757 20.4998 25.0156C21.38 24.526 21.2159 21.388 21.1768 20.737C21.1768 20.6146 21.1742 19.3333 20.7237 18.7187C20.4008 18.2734 19.8513 18.1042 19.518 18.0417C19.6529 17.8555 19.8307 17.7045 20.0362 17.6016C20.6404 17.2995 21.7289 17.2552 22.8097 17.2552H23.4112C24.5831 17.2708 24.8852 17.3464 25.3097 17.4531C26.169 17.6589 26.1873 18.2135 26.1117 20.112C26.0883 20.651 26.0649 21.2604 26.0649 21.9792C26.0649 22.1354 26.057 22.3021 26.057 22.4792C26.031 23.4453 25.9998 24.5417 26.682 24.9922C26.771 25.048 26.8739 25.0778 26.9789 25.0781C27.2159 25.0781 27.9294 25.0781 29.8617 21.763C30.4577 20.696 30.9755 19.5872 31.4112 18.4453C31.4503 18.3776 31.5649 18.1693 31.7003 18.0885C31.8002 18.0376 31.911 18.0117 32.0232 18.013H36.6612C37.1664 18.013 37.5128 18.0885 37.5779 18.2839C37.6925 18.5937 37.557 19.5391 35.4399 22.4062L34.4945 23.6536C32.5753 26.1693 32.5753 26.2969 34.6143 28.2057Z" fill="#CD06FF"/>
</g>
<defs>
<clipPath id="clip0_6456_400">
<rect width="50" height="50" fill="white"/>
</clipPath>
</defs>
</svg>
